<svg version="1.1" id="Layer_1" xmlns="http://www.w3.org/2000/svg" xmlns:xlink="http://www.w3.org/1999/xlink" x="0px" y="0px" viewBox="0 0 500 500" style="width: 161px;" xml:space="preserve" data-imageid="video-call-1-16" imageName="Video Call 1" class="illustrations_image">
<style type="text/css">
	.st0_video-call-1-16{fill:#093F68;}
	.st1_video-call-1-16{fill:#FFFFFF;}
	.st2_video-call-1-16{fill:#725858;}
	.st3_video-call-1-16{fill:#FFBC0E;}
	.st4_video-call-1-16{fill:#FFC9B0;}
	.st5_video-call-1-16{fill:#DFEAEF;}
	.st6_video-call-1-16{fill:#70CC40;}
	.st7_video-call-1-16{fill:#68E1FD;}
	.st8_video-call-1-16{fill:none;}
</style>
<path id="line_video-call-1-16" class="st0_video-call-1-16" d="M37.4,408.5c-1.2,0-2.1-1-2.1-2.1c0-0.5,0.2-1,0.5-1.3c0.8-0.9,0.8-0.9,68.3-1c39.9,0,93,0,146.2,0&#10;&#9;c106.2,0.1,212.4,0.2,212.4,0.2c1.2,0,2.1,0.9,2.1,2.1s-0.9,2.1-2.1,2.1c0,0,0,0,0,0l0,0c-144-0.2-417.5-0.5-424.9,0&#10;&#9;C37.6,408.4,37.5,408.5,37.4,408.5z"/>
<g id="screen_video-call-1-16">
	<path class="st0_video-call-1-16" d="M462.6,132.8v186.3c0,7.1-4.9,12.8-10.9,12.8h-258c-6,0-10.8-5.7-10.8-12.8V132.8c0-7,4.9-12.8,10.8-12.8h258&#10;&#9;&#9;C457.8,120.1,462.6,125.8,462.6,132.8z"/>
	<path class="st0_video-call-1-16" d="M451.8,334h-258c-7.1,0-12.9-6.7-12.9-14.9V132.8c0-8.2,5.8-14.9,12.9-14.9h258c7.1,0,13,6.7,13,14.9v186.3&#10;&#9;&#9;C464.7,327.4,458.9,334,451.8,334z M193.8,122.1c-4.8,0-8.8,4.8-8.8,10.7v186.4c0,5.9,3.9,10.7,8.8,10.7h258&#10;&#9;&#9;c4.8,0,8.8-4.8,8.8-10.7V132.8c0-5.9-3.9-10.7-8.8-10.7L193.8,122.1z"/>
	<path class="st1_video-call-1-16" d="M462.6,132.8v182.3H182.9V132.8c0-7,4.9-12.8,10.8-12.8h258C457.8,120.1,462.6,125.8,462.6,132.8z"/>
	<path class="st0_video-call-1-16" d="M462.6,317.2H182.9c-1.2,0-2.1-0.9-2.1-2.1V132.8c0-8.2,5.8-14.9,12.9-14.9h258c7.1,0,13,6.7,13,14.9v182.3&#10;&#9;&#9;C464.8,316.2,463.8,317.2,462.6,317.2C462.6,317.2,462.6,317.2,462.6,317.2z M185,313h275.5V132.8c0-5.9-3.9-10.7-8.8-10.7h-258&#10;&#9;&#9;c-4.8,0-8.8,4.8-8.8,10.7L185,313z"/>
	<path class="st2_video-call-1-16" d="M339.8,149.3c-3.5-1.9-7.4-3.1-11.3-3.6c-10.8-1.4-21.6,2.3-29.3,10c-8.9,9-13.2,23.9-14.8,36.1&#10;&#9;&#9;c-2.1,16.3-3.4,32.7-3.7,49.1c0.1,1.6,0.4,3.3,1,4.8c0,0,20,18.9,63.6,13.6c13.6-1.7,27.4-2.3,41.1-3.9&#10;&#9;&#9;c-1.7-11.4-0.8-23.1-2.4-34.4c-1.3-9.5-2.8-18.9-3.7-28.6s-1.6-22.5-10.8-28.1c-4.6-2.7-10.3-3.2-15.3-1.2&#10;&#9;&#9;C350.8,157.2,345.8,152.4,339.8,149.3z"/>
	<path class="st0_video-call-1-16" d="M329.9,262.3c-33.3,0-49-14.4-49.8-15.1c-0.3-0.2-0.5-0.6-0.6-0.9c-0.6-1.8-0.9-3.6-1-5.5&#10;&#9;&#9;c0.4-16.5,1.6-33,3.7-49.3c1.3-9.4,4.9-26.6,15.4-37.2c8.2-8.1,19.7-12,31.1-10.6c4.2,0.6,8.3,1.9,12,3.9c5.8,3,10.8,7.6,14.3,13.1&#10;&#9;&#9;c5.2-1.5,10.8-0.8,15.4,1.9c9.6,5.9,10.8,18.8,11.6,28.3l0.1,1.4c0.6,7.1,1.7,14.2,2.7,21c0.4,2.5,0.7,5,1.1,7.5&#10;&#9;&#9;c0.7,5.6,1,11.2,1.1,16.9c0.1,5.9,0.5,11.7,1.2,17.5c0.2,1.1-0.6,2.2-1.8,2.4c0,0,0,0-0.1,0c-6.7,0.8-13.5,1.3-20,1.9&#10;&#9;&#9;c-6.9,0.6-14.1,1.2-21.1,2C340.3,261.9,335.1,262.3,329.9,262.3z M283.4,244.5c3,2.5,22.8,17.4,61.5,12.6c7.1-0.9,14.3-1.5,21.3-2&#10;&#9;&#9;c5.8-0.5,11.8-1,17.8-1.6c-0.6-5.3-0.8-10.6-1-15.8c-0.1-5.5-0.5-11-1.1-16.4c-0.3-2.5-0.7-5-1.1-7.5c-1-6.9-2-14-2.7-21.2&#10;&#9;&#9;l-0.1-1.4c-0.8-9-1.8-20.3-9.6-25.1c-4.1-2.4-9-2.8-13.4-1c-1,0.4-2.1,0-2.6-0.9c-3.2-5.5-7.8-10-13.5-12.9l0,0&#10;&#9;&#9;c-3.3-1.7-6.9-2.9-10.6-3.4c-10.1-1.3-20.3,2.2-27.6,9.4c-10,10.1-13.3,27.7-14.2,34.9c-2.1,16.2-3.3,32.5-3.7,48.9&#10;&#9;&#9;C282.8,242.2,283,243.3,283.4,244.5L283.4,244.5z"/>
	<path class="st3_video-call-1-16" d="M308.6,254.1h37.2c11.3,0,20.5,9.2,20.5,20.5V316l0,0h-78.1l0,0v-41.4C288.1,263.3,297.3,254.1,308.6,254.1z"/>
	<path class="st0_video-call-1-16" d="M366.2,318.1h-78.1c-1.2,0-2.1-0.9-2.1-2.1c0,0,0,0,0-0.1v-39c0-13.8,11.2-25,25-25h32.3c13.8,0,25,11.2,25,25&#10;&#9;&#9;v39C368.3,317.2,367.4,318.1,366.2,318.1C366.2,318.1,366.2,318.1,366.2,318.1z M290.2,314h73.9v-37c0-11.5-9.3-20.8-20.8-20.8H311&#10;&#9;&#9;c-11.5,0-20.8,9.3-20.8,20.8L290.2,314z"/>
	<polygon class="st1_video-call-1-16" points="333,256.3 322.8,298.9 320,257.2 &#9;"/>
	<path class="st0_video-call-1-16" d="M322.8,301h-0.2c-1-0.1-1.8-0.9-1.9-1.9l-2.8-41.7c-0.1-1.2,0.8-2.1,1.9-2.2c0,0,0,0,0,0l13-0.9&#10;&#9;&#9;c1.2-0.1,2.2,0.8,2.2,1.9c0,0.2,0,0.4-0.1,0.6l-10.1,42.6C324.6,300.3,323.8,301,322.8,301z M322.2,259.1L324,285l6.3-26.5&#10;&#9;&#9;L322.2,259.1z"/>
	<path class="st4_video-call-1-16" d="M329.5,262.9l-7.3-0.4c-1.4-0.1-2.4-1.2-2.4-2.6l0.5-9.8l0,0l12.3,0.6l0,0l-0.5,9.8&#10;&#9;&#9;C332,261.9,330.9,263,329.5,262.9z"/>
	<path class="st0_video-call-1-16" d="M327,264.9h-0.4l-1.9-0.1c-4-0.2-7.1-3.6-6.9-7.7l0.4-7.1c0.1-1.2,1-2.1,2.2-2c0,0,0,0,0,0l12.3,0.6&#10;&#9;&#9;c1.2,0.1,2.1,1,2,2.2l-0.4,7.1C334.1,261.8,330.9,264.8,327,264.9L327,264.9z M322.3,252.3l-0.3,5c-0.1,1.7,1.2,3.2,3,3.3&#10;&#9;&#9;c0,0,0,0,0,0l0,0l1.9,0.1c0.8,0.1,1.7-0.2,2.3-0.8c0.6-0.6,1-1.3,1-2.2l0.2-5L322.3,252.3z"/>
	
		<ellipse transform="matrix(4.993762e-02 -0.9988 0.9988 4.993762e-02 64.1282 502.3517)" class="st4_video-call-1-16" cx="296.1" cy="217.5" rx="10.3" ry="9.2"/>
	<path class="st0_video-call-1-16" d="M296.2,230.6h-0.5c-3.1-0.2-6-1.7-7.9-4.1c-4-5.2-3.7-12.6,0.9-17.3c4.1-4.3,10.8-4.4,15-0.4&#10;&#9;&#9;c0.4,0.4,0.8,0.8,1.1,1.2c4,5.2,3.7,12.6-0.9,17.3C301.8,229.3,299.1,230.5,296.2,230.6z M296.4,210c-1.8,0-3.5,0.7-4.8,2&#10;&#9;&#9;c-3.1,3.2-3.3,8.2-0.6,11.8c2.1,2.9,6.2,3.4,9,1.3c0.3-0.2,0.6-0.5,0.9-0.8c3-3.2,3.3-8.2,0.6-11.8c-1.2-1.5-2.9-2.5-4.8-2.6&#10;&#9;&#9;L296.4,210z"/>
	<path class="st4_video-call-1-16" d="M326.7,253.3c20.2,1,39.5-22.9,40.6-42.8l-4.9,1.6l0.9-14.1c0,0-25-8-21-19.6c0,0-7.9,8.4-18.5,7.9&#10;&#9;&#9;c-19.6-1.1-27-6.6-27-6.6l-1.9,35.9C293.8,235.5,306.5,252.3,326.7,253.3z"/>
	<path class="st0_video-call-1-16" d="M327.9,255.5c-0.5,0-0.9,0-1.4,0l0,0c-20.4-1-34.9-18.2-33.8-39.9l1.9-35.9c0-0.8,0.5-1.5,1.2-1.8&#10;&#9;&#9;c0.7-0.4,1.5-0.3,2.2,0.2c0,0.1,7.3,5.2,25.9,6.2c9.6,0.6,16.8-7.1,16.9-7.2c0.8-0.8,2.1-0.9,3-0.1c0.6,0.6,0.8,1.4,0.6,2.2&#10;&#9;&#9;c-0.5,1.5-0.4,3.2,0.4,4.6c3,6,15,11,19.3,12.4c0.9,0.3,1.5,1.2,1.5,2.1l-0.7,11l2-0.6c0.7-0.2,1.4-0.1,1.9,0.3&#10;&#9;&#9;c0.5,0.4,0.9,1.1,0.8,1.8C368.3,230.9,348.8,255.5,327.9,255.5z M326.8,251.2c15.2,0.8,35.3-16.6,38.1-37.8l-1.9,0.6&#10;&#9;&#9;c-1.1,0.4-2.3-0.3-2.6-1.4c-0.1-0.2-0.1-0.5-0.1-0.8l0.8-12.5c-4.4-1.6-16.5-6.5-20.2-13.9c-0.4-0.8-0.7-1.6-0.9-2.4&#10;&#9;&#9;c-3.6,2.6-9.4,5.6-16.4,5.3c-13.1-0.7-21-3.4-25-5.3l-1.7,32.6C295.9,235.4,308.5,250.3,326.8,251.2L326.8,251.2z"/>
	
		<ellipse transform="matrix(5.146442e-02 -0.9987 0.9987 5.146442e-02 107.4635 539.7763)" class="st0_video-call-1-16" cx="337.9" cy="213.3" rx="3.3" ry="3.3"/>
	<circle class="st0_video-call-1-16" cx="305.8" cy="211.7" r="3.3"/>
	<path class="st0_video-call-1-16" d="M320.6,222.6c-1.4,0-2.7-0.1-4-0.5c-0.8-0.3-1.5-0.9-1.8-1.7c-0.9-2.4,1.3-7.1,3.4-10.6c0.6-1,1.8-1.4,2.8-0.8&#10;&#9;&#9;c1,0.6,1.4,1.8,0.8,2.8c0,0,0,0.1-0.1,0.1c-1.2,2-2.2,4.1-3,6.4c1.2,0.1,2.4,0.1,3.6,0c1.1-0.1,2.2,0.7,2.3,1.8&#10;&#9;&#9;c0.1,1.1-0.7,2.2-1.8,2.3C322.2,222.6,321.4,222.6,320.6,222.6z M318.8,219.1L318.8,219.1z"/>
	<path class="st0_video-call-1-16" d="M350.7,209.3c-0.3,0-0.7,0-1-0.1l-15.5-3.8c-2.2-0.6-3.6-2.8-3.1-5.1s2.8-3.6,5.1-3.1l0,0l15.4,3.8&#10;&#9;&#9;c2.2,0.5,3.6,2.8,3.1,5.1C354.3,208,352.6,209.3,350.7,209.3L350.7,209.3z"/>
	<path class="st0_video-call-1-16" d="M318.9,204L318.9,204l-15.9-0.1c-2.3,0-4.2-1.9-4.2-4.2c0-2.3,1.9-4.2,4.2-4.2l0,0l15.9,0.1&#10;&#9;&#9;c2.3,0.1,4.1,2.1,4,4.4C322.8,202.2,321.1,203.9,318.9,204L318.9,204z"/>
	<path class="st4_video-call-1-16" d="M359.9,212.7c0,0,9.1-5.6,13.4,2.4s-0.9,21.2-15.2,16.6"/>
	<path class="st0_video-call-1-16" d="M363.7,234.7c-2.1,0-4.2-0.4-6.2-1.1c-1.1-0.4-1.7-1.5-1.4-2.6c0.4-1.1,1.5-1.7,2.6-1.4&#10;&#9;&#9;c5.1,1.6,9.3,0.9,11.8-2.1c2.6-3.3,2.9-7.8,1-11.5c-0.7-1.5-1.9-2.6-3.5-3.1c-3.2-0.9-7,1.4-7,1.4c-1,0.6-2.3,0.3-2.9-0.7&#10;&#9;&#9;s-0.3-2.3,0.7-2.9l0,0c0.2-0.1,5.3-3.2,10.3-1.9c2.7,0.8,4.9,2.6,6.1,5.1c2.8,5.2,2.2,11.5-1.5,16.1&#10;&#9;&#9;C371.2,233.2,367.5,234.9,363.7,234.7z"/>
	<path class="st0_video-call-1-16" d="M323.8,238.3c-4.5-0.2-8.8-1.6-12.4-4.2c-0.9-0.7-1.1-2-0.4-2.9c0.7-0.9,2-1.1,2.9-0.4&#10;&#9;&#9;c0.1,0.1,5.9,4.3,12.1,3.2c3.6-0.7,6.8-3.1,9.5-7.3c0.6-1,1.9-1.3,2.9-0.7c1,0.6,1.3,1.9,0.7,2.9c-3.3,5.2-7.4,8.3-12.3,9.2&#10;&#9;&#9;C325.7,238.2,324.7,238.3,323.8,238.3z"/>
	<path class="st0_video-call-1-16" d="M305.1,318.1c-1.1,0-1.9-0.8-2.1-1.8l-1.9-15.6c-1.6-3.3-2.7-6.9-3.3-10.5c-0.7-5.4,1.5-10.8,5.7-14.2&#10;&#9;&#9;c0.9-0.7,2.2-0.6,2.9,0.3c0.7,0.9,0.6,2.2-0.3,2.9c-0.1,0-0.1,0.1-0.2,0.1c-3,2.6-4.5,6.5-4,10.4c0.5,4.2,3,9.4,3,9.4&#10;&#9;&#9;c0.1,0.2,0.2,0.4,0.2,0.7l1.9,16c0.1,1.1-0.7,2.2-1.8,2.3c0,0,0,0,0,0L305.1,318.1z"/>
	<path class="st0_video-call-1-16" d="M348.5,318.1c-1.2,0-2.1-0.9-2.1-2.1v-38.5c0-1.2,0.9-2.1,2.1-2.1c1.2,0,2.1,0.9,2.1,2.1V316&#10;&#9;&#9;C350.6,317.2,349.7,318.1,348.5,318.1C348.5,318.1,348.5,318.1,348.5,318.1z"/>
	<path class="st5_video-call-1-16" d="M265.9,200.9h-43.8c-1.2,0-2.1-0.9-2.1-2.1v-53c0-1.2,0.9-2.1,2.1-2.1h43.7c1.2,0,2.1,0.9,2.1,2.1v53&#10;&#9;&#9;C268,200,267.1,200.9,265.9,200.9C265.9,200.9,265.9,200.9,265.9,200.9z M224.3,196.8h39.6V148h-39.6L224.3,196.8z"/>
	<path class="st5_video-call-1-16" d="M244.1,178.4c-6.7,0-12.2-5.4-12.2-12.2s5.4-12.2,12.2-12.2c6.7,0,12.2,5.4,12.2,12.2l0,0&#10;&#9;&#9;C256.2,173,250.8,178.4,244.1,178.4z M244.1,158.2c-4.4,0-8,3.6-8,8s3.6,8,8,8s8-3.6,8-8S248.5,158.2,244.1,158.2z"/>
	<path class="st5_video-call-1-16" d="M256.5,200.9h-24.9c-1.1,0-2.1-0.9-2.1-2.1c0,0,0,0,0,0v-10.1c-0.2-8,6.1-14.7,14.2-14.9&#10;&#9;&#9;c8-0.2,14.7,6.1,14.9,14.2c0,0.3,0,0.5,0,0.8v10.1C258.6,200,257.7,200.9,256.5,200.9C256.5,200.9,256.5,200.9,256.5,200.9z&#10;&#9;&#9; M233.7,196.8h20.7v-8c0.2-5.7-4.3-10.5-10-10.7c-5.7-0.2-10.5,4.3-10.7,10c0,0.2,0,0.4,0,0.6V196.8z"/>
	<path class="st6_video-call-1-16" d="M408.7,315.1h-11.1c-3.3-7.7-9-23.3-7.8-34.8c0,0,7.8,3.5,12.5,13.6c0.5,1,0.9,2,1.3,3&#10;&#9;&#9;C406.8,306,408.2,311.7,408.7,315.1z"/>
	<path class="st0_video-call-1-16" d="M408.7,317.2h-11.1c-0.8,0-1.6-0.5-1.9-1.3c-3.5-8.3-9.2-23.9-8-35.8c0.1-0.7,0.4-1.3,1-1.6&#10;&#9;&#9;c0.6-0.3,1.3-0.4,1.9-0.1c0.4,0.2,8.5,4,13.6,14.6c0.5,1,0.9,2,1.4,3.2c2.8,7.9,4.6,14.1,5.2,18.6c0.2,1.1-0.6,2.2-1.8,2.4&#10;&#9;&#9;C408.9,317.2,408.8,317.2,408.7,317.2L408.7,317.2z M399,313h7.2c-1.2-5.2-2.7-10.3-4.6-15.3c-2-5.4-5.4-10.1-10-13.7&#10;&#9;&#9;C391.8,293.8,396,305.7,399,313z"/>
	<path class="st6_video-call-1-16" d="M418.1,293.8c0.2,7.3-1.1,14.6-3.9,21.3h-9.8c-1.4-7-2.1-14.1-2.1-21.2c-0.1-10.2,1.4-21.8,6.8-31.4&#10;&#9;&#9;c0,0,7.2,8.2,8.9,28.2C418,291.7,418.1,292.8,418.1,293.8z"/>
	<path class="st0_video-call-1-16" d="M414.3,317.2h-9.8c-1,0-1.9-0.7-2.1-1.7c-1.4-7.1-2.1-14.3-2.2-21.6c-0.1-13,2.3-23.9,7-32.4&#10;&#9;&#9;c0.3-0.6,0.9-1,1.6-1.1c0.7-0.1,1.4,0.2,1.8,0.7c0.3,0.4,7.7,9,9.4,29.4c0.1,1.1,0.1,2.1,0.2,3.2c0.2,7.6-1.1,15.2-4,22.2&#10;&#9;&#9;C415.9,316.7,415.1,317.2,414.3,317.2z M406.2,313h6.7c2.3-6.1,3.4-12.6,3.1-19.2l0,0c0-1-0.1-1.9-0.2-2.9&#10;&#9;&#9;c-1.1-12.6-4.4-20.4-6.6-24.2c-3.3,7.4-5,16.5-4.9,27.2C404.4,300.3,405,306.7,406.2,313z"/>
	<path class="st6_video-call-1-16" d="M423,315.1h-13.5c1.6-7.6,4.5-14.8,8.7-21.3c3.2-5,7.1-9.5,11.7-13.2C429.9,280.5,434.5,295,423,315.1z"/>
	<path class="st0_video-call-1-16" d="M423,317.2h-13.5c-1.2,0-2.1-1-2.1-2.1c0-0.1,0-0.3,0-0.4c1.7-7.8,4.7-15.3,9-22.1c3.3-5.2,7.4-9.8,12.2-13.7&#10;&#9;&#9;c0.9-0.7,2.2-0.6,2.9,0.3c0.2,0.2,0.3,0.4,0.4,0.7c0.2,0.6,4.8,15.6-7,36.2C424.5,316.8,423.8,317.2,423,317.2z M412,313h9.7&#10;&#9;&#9;c7.1-13,7.2-23.4,6.7-28.5c-3.3,3.1-6.2,6.6-8.6,10.4C416.3,300.5,413.7,306.6,412,313L412,313z"/>
</g>
<g id="character-1_video-call-1-16">
	<path class="st4_video-call-1-16" d="M202,210.1c0,0,11.8,18.4,6.3,24.9s-16.9,0-16.9,0"/>
	<path class="st0_video-call-1-16" d="M201.5,240c-5.5,0-10.8-3-11.1-3.2c-1-0.6-1.3-1.9-0.7-2.9c0.6-1,1.8-1.3,2.8-0.8c0.1,0.1,9.9,5.5,14.2,0.5&#10;&#9;&#9;c3.4-4-2.9-16.8-6.4-22.4c-0.7-1-0.4-2.3,0.5-2.9c1-0.7,2.3-0.4,2.9,0.5c0,0,0.1,0.1,0.1,0.1c1.3,2,12.4,19.9,6.1,27.4&#10;&#9;&#9;C207.7,238.8,204.7,240.1,201.5,240z"/>
	<path class="st4_video-call-1-16" d="M232.2,336l2.1-17.3c0,0-2.9-10.4-1.3-17.5s2.8-8.4,4.9-5.7s4.5,8.6,4.5,8.6s5.9-22.5,8.6-25.3&#10;&#9;&#9;c3.5-3.5,20.8,5.5,23.9,9.8s1.8,15.5-0.8,22.9c-5,14.5-16.5,41.6-16.5,41.6L232.2,336z"/>
	<path class="st0_video-call-1-16" d="M257.7,355.3c-0.4,0-0.8-0.1-1.2-0.4L231,337.7c-0.7-0.4-1-1.2-0.9-2l2.1-16.9c-0.5-2.1-2.7-11.3-1.2-18.1&#10;&#9;&#9;c1.2-5.3,2.2-8,4.5-8.6c2.1-0.5,3.6,1.4,4.1,2c0.9,1.2,1.7,2.5,2.4,3.8c2.1-7.5,5.4-18.4,7.7-20.7c1.1-1.1,2.7-1.5,4.9-1.4&#10;&#9;&#9;c6.8,0.5,19.3,7.4,22.3,11.5c4,5.5,1.8,18.1-0.5,24.9c-5,14.5-16.4,41.5-16.5,41.7c-0.2,0.6-0.7,1-1.3,1.2&#10;&#9;&#9;C258.1,355.3,257.9,355.3,257.7,355.3z M234.4,335l22.3,15.1c2.9-6.9,11.4-27.3,15.5-39.1c2.5-7.2,3.5-17.6,1.1-21&#10;&#9;&#9;c-2-2.7-12.5-8.8-18.6-9.7c-1.7-0.2-2.2,0.1-2.2,0.1c-1.5,1.5-5.3,13.8-8.1,24.4c-0.2,0.9-1,1.5-1.9,1.6c-0.9,0-1.7-0.5-2.1-1.3&#10;&#9;&#9;c-1.1-2.8-2.5-5.5-4.1-8c-0.6,1.5-1,3.1-1.3,4.7c-1.4,6.5,1.3,16.4,1.3,16.5c0.1,0.3,0.1,0.5,0.1,0.8L234.4,335z"/>
	<ellipse class="st4_video-call-1-16" cx="77.9" cy="220.9" rx="21.4" ry="18.4"/>
	<path class="st0_video-call-1-16" d="M77.9,241.4c-12.9,0-23.5-9.2-23.5-20.5s10.5-20.5,23.5-20.5s23.5,9.2,23.5,20.5S90.9,241.4,77.9,241.4z&#10;&#9;&#9; M77.9,204.5c-10.6,0-19.3,7.3-19.3,16.3s8.7,16.3,19.3,16.3s19.3-7.3,19.3-16.3S88.6,204.5,77.9,204.5L77.9,204.5z"/>
	<path class="st4_video-call-1-16" d="M169.5,141.9c18.3,31.5,30.9,13.7,34.6,7.5v67.1c0,33.4-25.6,61.3-58.8,64.2v13.8c0,6.1-4.9,11-11,11&#10;&#9;&#9;s-11-4.9-11-11v-12.9c-39.1-1.5-58.2-35.1-58.2-65.1l10.1-59.7C75.2,156.8,100.8,176.7,169.5,141.9z"/>
	<path class="st0_video-call-1-16" d="M134.3,307.5c-7.2,0-13.1-5.9-13.1-13.1v-10.9c-17.7-1.2-32.7-8.9-43.3-22.5C68.4,248.9,63,232.6,63,216.4&#10;&#9;&#9;c0-0.1,0-0.2,0-0.4l10.1-59.7c0.2-1.1,1.3-1.9,2.4-1.7c0.3,0.1,0.7,0.2,0.9,0.4c0.2,0.2,25.8,18.5,92.1-15.1c1-0.5,2.2-0.1,2.8,0.8&#10;&#9;&#9;c6.5,11.1,12.9,17,18.6,17.1h0.1c4.3,0,8.5-3.2,12.4-9.6c0.6-1,1.9-1.3,2.9-0.7c0.6,0.4,1,1.1,1,1.8v67.1&#10;&#9;&#9;c-0.2,33.7-25.4,62-58.9,66.1v11.9C147.4,301.6,141.5,307.5,134.3,307.5z M67.2,216.6c0.1,30.2,19.4,61.4,56.2,62.8&#10;&#9;&#9;c1.1,0.1,2,1,2,2.1v12.9c0,4.9,4,8.9,8.9,8.9c4.9,0,8.9-4,8.9-8.9v-13.8c0-1.1,0.8-2,1.9-2.1c31.9-2.8,56.9-30,56.9-62.1v-60.7&#10;&#9;&#9;c-3.7,4.2-7.7,6.3-12.1,6.3h-0.1c-7-0.1-14.1-5.9-21.2-17.4c-56.1,28-83.6,19.6-92,15.4L67.2,216.6z"/>
	<path class="st2_video-call-1-16" d="M170.2,168.7c4,0.4,33.8,7.8,36.9,4.7c2.8-3,4.6-6.8,5.2-10.8c2.1-10.6-0.9-22-7.4-30.6&#10;&#9;&#9;c-5.1-6.6-12.9-12.7-21-15c-2.6-0.7-23.5-0.8-23.1,0.1c-3.9-9.2-12.7-15.6-22.1-19.4c-36.1-14.6-72,1.1-86.7,36.7&#10;&#9;&#9;c-6.9,16.7-8.6,35.2-8.1,53.3c0.5,18.8,3.4,38,13,54.1c18.4,30.9,61.3,38.7,90.4,20.2C174.7,244.8,167.6,182.9,170.2,168.7z"/>
	<path class="st0_video-call-1-16" d="M112.4,274.2c-5.6,0-11.1-0.7-16.6-2c-17.6-4.2-32-14.6-40.8-29.2c-8.5-14.3-12.7-31.8-13.3-55.1&#10;&#9;&#9;c-0.6-21.5,2.2-39.2,8.3-54.2c15.1-36.7,52.7-52.6,89.4-37.7c10.7,4.3,18.6,11,22.5,18.9c6.6-1,22.3,0.2,22.4,0.2&#10;&#9;&#9;c8.1,2.3,16.3,8.1,22.1,15.7c7.1,9.3,10,21.3,7.8,32.2c-1,5-3,9-5.8,11.9c-2.4,2.4-9.8,1.7-31.8-2.8c-1.8-0.4-3.5-0.7-4.7-1&#10;&#9;&#9;c-0.3,3.3-0.4,8.2-0.5,13.7c-0.4,24.4-1,65.1-23.1,79.2C137.6,270.8,125.1,274.3,112.4,274.2z M111.5,94.5&#10;&#9;&#9;c-24.9,0-46.8,14.8-57.6,40.9c-5.9,14.4-8.5,31.5-7.9,52.5c0.6,22.6,4.6,39.5,12.8,53.1s21.7,23.4,38.1,27.3&#10;&#9;&#9;c17.2,4.1,35.2,1.3,49.3-7.7c20.2-12.8,20.8-52.2,21.1-75.7c0.1-7.3,0.2-13,0.8-16.5c0.2-1.1,1.2-1.8,2.3-1.7&#10;&#9;&#9;c1.1,0.1,3.6,0.6,7.1,1.4c6.9,1.4,25.4,5.2,28.2,3.9c2.1-2.1,3.7-5.4,4.5-9.6c1.8-10.2-0.7-20.7-7.1-28.9&#10;&#9;&#9;c-5.2-6.8-12.8-12.2-19.9-14.2c-2.1-0.6-18.3-0.7-21.3-0.1c-0.1,0.1-0.2,0.1-0.4,0.2c-1.1,0.4-2.3-0.1-2.7-1.1&#10;&#9;&#9;c-3.2-7.6-10.6-14.1-20.9-18.2C129.6,96.4,120.6,94.5,111.5,94.5z"/>
	<path class="st7_video-call-1-16 targetColor" d="M229.4,328.8l-7.2,22.1c-7.6-31.8-26.7-65.4-46.3-65.4H96c-13.5,0-24.6,10.9-24.6,24.5c0,0,0,0,0,0.1v96.4&#10;&#9;&#9;h176.5l18-66.8L229.4,328.8z" style="fill: rgb(104, 225, 253);"/>
	<path class="st0_video-call-1-16" d="M247.9,408.5H71.4c-1.1,0-2.1-0.9-2.1-2.1c0,0,0,0,0,0V310c0-14.7,12-26.6,26.7-26.6c0,0,0,0,0,0h79.9&#10;&#9;&#9;c19.5,0,37.8,29.8,46.5,60.1l5-15.3c0.3-1.1,1.5-1.7,2.6-1.4l36.6,10.8c1.1,0.3,1.7,1.5,1.4,2.5l-18,66.8&#10;&#9;&#9;C249.7,407.8,248.9,408.5,247.9,408.5z M73.5,404.3h172.8l17.1-63.3l-32.6-9.7l-6.6,20.1c-0.3,0.9-1.1,1.5-2.1,1.4&#10;&#9;&#9;c-1,0-1.8-0.7-2-1.6c-7.5-31.3-26.1-63.8-44.2-63.8H96c-12.4,0-22.5,10-22.5,22.4v0L73.5,404.3z"/>
	<line class="st8_video-call-1-16" x1="184.4" y1="406.4" x2="174.7" y2="350"/>
	<path class="st0_video-call-1-16" d="M184.4,408.5c-1,0-1.9-0.7-2.1-1.7l-9.7-56.4c-0.2-1.1,0.5-2.2,1.7-2.4s2.2,0.5,2.4,1.7c0,0,0,0.1,0,0.1&#10;&#9;&#9;l9.7,56.4c0.2,1.1-0.6,2.2-1.7,2.4c0,0,0,0,0,0L184.4,408.5z"/>
	<path class="st4_video-call-1-16" d="M175.9,198.8c-8.8-3.2-23.1-1.6-23,17.2c0,10.2,6.2,18.9,15.5,19.6"/>
	<path class="st0_video-call-1-16" d="M168.4,237.7h-0.2c-10.1-0.7-17.4-9.9-17.4-21.7c0-10.2,4-15.2,7.4-17.6c5.7-4,13.3-3.5,18.4-1.6&#10;&#9;&#9;c1.1,0.4,1.6,1.6,1.2,2.7s-1.6,1.6-2.7,1.2l0,0c-4.2-1.5-10.2-2-14.6,1.1c-3.7,2.6-5.6,7.4-5.6,14.1c0,9.6,5.7,16.9,13.6,17.5&#10;&#9;&#9;c1.2,0,2.1,1,2,2.2S169.5,237.7,168.4,237.7L168.4,237.7z"/>
	<circle class="st0_video-call-1-16" cx="194.2" cy="202.2" r="3.7"/>
	<path class="st0_video-call-1-16" d="M202.1,195c-0.9,0-1.7-0.3-2.4-0.8c-0.1-0.1-6.3-4.3-11.2-1.5c-2,1.2-4.6,0.5-5.7-1.5c-1.2-2-0.5-4.6,1.5-5.7&#10;&#9;&#9;l0,0c9.6-5.6,19.8,1.6,20.3,1.9c1.9,1.3,2.3,3.9,1,5.8C204.7,194.3,203.5,195,202.1,195z"/>
	<path class="st0_video-call-1-16" d="M179.9,253.7c-2.8,0-5.4-1.1-7.4-3c-0.8-0.9-0.7-2.2,0.1-3s2.2-0.7,3,0.1c0.5,0.5,4.5,4.4,11.2-1.6&#10;&#9;&#9;c0.9-0.7,2.2-0.6,2.9,0.2c0.7,0.8,0.6,2.1-0.2,2.9C185.9,252.6,182.6,253.7,179.9,253.7z"/>
	<path class="st0_video-call-1-16" d="M234.3,393.2c-0.9,0-1.7-0.6-2-1.5l-12.1-40.3c-0.4-1.1,0.2-2.3,1.3-2.6s2.3,0.2,2.6,1.3c0,0,0,0.1,0,0.1&#10;&#9;&#9;l12.1,40.3c0.3,1.1-0.3,2.3-1.4,2.6C234.7,393.2,234.5,393.2,234.3,393.2z"/>
	<path class="st0_video-call-1-16" d="M94.9,408.5c-1.1,0-2-0.8-2.1-1.9l-5.9-60.5c-0.1-1.2,0.8-2.2,1.9-2.2c1.1-0.1,2.1,0.7,2.2,1.8l5.9,60.5&#10;&#9;&#9;c0.1,1.1-0.7,2.2-1.9,2.3L94.9,408.5z"/>
</g>
</svg>